<svg xmlns="http://www.w3.org/2000/svg" enable-background="new 0 0 3000 3000" viewBox="0 0 3000 3000" id="Fail"><path fill="#f79bba" d="M345.03 1603.35l21.33 11.06 6.22-8.25c0 0 29.87-21.12 5.1-39.78-9.65-7.27-23.25 1.46-20.51 13.23.04.16.08.33.12.5.1.41-.44.65-.67.29l-5.44-8.42c-.93-1.43-2.82-1.87-4.28-.99l0 0c-1.34.81-1.89 2.48-1.29 3.92l4.06 9.76c.91 2.18.93 4.63.06 6.83L345.03 1603.35zM81.7 1835.57l-22.61-8.15-5.08 9c0 0-26.82 24.88.19 40.1 10.52 5.93 22.86-4.52 18.59-15.82-.06-.16-.12-.32-.19-.48-.15-.39.35-.7.62-.38l6.51 7.63c1.11 1.3 3.05 1.48 4.38.42l0 0c1.22-.98 1.55-2.71.76-4.06l-5.32-9.14c-1.19-2.04-1.53-4.47-.96-6.76L81.7 1835.57z" class="colorf7c19b svgShape"></path><polygon fill="#fb0758" points="109.04 1710.8 53.39 1833.32 81.76 1844.06 134.39 1759.26" class="colorfb6107 svgShape"></polygon><path fill="#fb0758" d="M163.13,1872.34l43.35-33.34c0,0,13.23-83.56,41.24-131.58l42.22,1.22c12.19,0.35,23.71-5.56,30.54-15.67
							l49.64-80.32l-26.54-15.55l-48.33,70.9l-48.4-16.33c-2.1-2.11-4.52-3.81-7.22-5.06c-15.53-7.22-69.46-28.11-101.17,13
							c-33.34,42.3-44.18,78.19-46.68,158.05l0,0L163.13,1872.34z" class="colorfb6107 svgShape"></path><rect width="34.18" height="25.81" x="41.7" y="2171.49" fill="#f79bba" transform="rotate(-69.218 58.787 2184.481)" class="colorf7c19b svgShape"></rect><path fill="#43374c" d="M38.95,2190.31l-12.09,14.5c-1.01,1.21-1.63,2.6-1.81,4.04l0,0c-0.44,3.62,2.01,7.07,6.17,8.68l41.5,16.09
						c3.55,1.38,7.45,2.13,11.43,2.2l0,0c4.37,0.08,8.03-2.62,8.17-6.02l0,0c0.06-1.39-0.48-2.74-1.53-3.85l-21.42-27.94
						c-0.51-0.67-1.28-1.2-2.19-1.51l-22.11-7.63C42.87,2188.11,40.27,2188.73,38.95,2190.31z" class="color37424c svgShape"></path><rect width="25.81" height="34.18" x="209.63" y="2178.39" fill="#f79bba" transform="translate(-12.942 1.35)" class="colorf7c19b svgShape"></rect><path fill="#43374c" d="M206.11,2208.59l-6.05,17.88c-0.51,1.5-0.59,3.01-0.23,4.42l0,0c0.9,3.54,4.42,5.87,8.88,5.88l44.51,0.06
						c3.81,0,7.72-0.7,11.45-2.07l0,0c4.1-1.5,6.54-5.33,5.46-8.56l0,0c-0.44-1.31-1.44-2.38-2.82-3.04l-30.05-18.35
						c-0.72-0.44-1.62-0.65-2.59-0.62l-23.38,0.85C208.97,2205.13,206.77,2206.64,206.11,2208.59z" class="color37424c svgShape"></path><path fill="#4b335e" d="M77.24,2184.79l67.89-136.39l11.17-113.31l33.51,101.31l14.66,151.6h36.68l-7.34-169.61L206.48,1839
						c0,0-71.35,13.34-114.7-21.34l4,220.07L45.09,2171.1L77.24,2184.79z" class="color334d5e svgShape"></path><path fill="#f79bba" d="M217.54,1629.84c-0.75-0.05-1.28,0.72-0.98,1.4l5.51,12.47c0.3,0.65,0.54,1.14,0.25,1.64
							c-0.82,1.3-1.73,2.36-2.75,3.22c-4.41,3.74-10.5,3.66-15.81,2.46c-5.46-1.21-10.05-3.62-11.12-4.32
							c-0.19-0.12-0.3-0.32-0.33-0.54l-1.91-20.47c-0.03-0.32-0.23-0.6-0.51-0.76c-13.38-7.84-13.64-26.41-13.64-26.41
							c1.8-40.75,31.89-36.52,46.47-32.04c4.87,1.5,8.66,5.36,10.1,10.25C248.05,1628.59,224.22,1630.33,217.54,1629.84z" class="colorf7c19b svgShape"></path><path fill="#3e294e" d="M195.08,1598.22l2.9,12.12c0.34,1.4,1.99,2.01,3.16,1.16l0,0c0.59-0.43,0.9-1.15,0.81-1.88l-1.15-9.16
							c-0.25-2.02,0.61-4.01,2.23-5.24c3.09-2.35,7.56-7.05,5.89-13.7c-0.36-1.43,0.58-2.87,2.04-3.1c5.07-0.8,15.1-2.95,18.74-7.73
							c0.67-0.88,1.42-1.7,2.23-2.44c2.29-2.09,6.15-6.76,2.95-12.43c-0.53-0.94-1.62-1.42-2.67-1.16l-8.84,2.12
							c-0.61,0.15-1.24-0.19-1.46-0.79l-2.66-7.37c-0.29-0.8-1.27-1.08-1.93-0.55l-8.79,6.94c-1.91,1.51-4.5,1.81-6.71,0.79
							c-4.59-2.11-13.59-4.4-24.52,2.33c-9.72,5.99-13.6,17.94-15.15,26.37c-1.02,5.53,0.49,11.22,4.08,15.56l8.39,10.15
							c0.31,0.38,0.59,0.77,0.84,1.19c1.9,3.15,8.87,17.79,14.61,13.99c0.16-0.1,0.23-0.3,0.18-0.49l0.25-8.01
							c-0.43-1.78-1.36-3.41-2.7-4.66c-3.6-3.38-10.22-10.86-3.67-15.25c2.19-1.46,4.91-1.96,7.47-1.36
							C193.19,1595.98,194.72,1596.72,195.08,1598.22z" class="color29354e svgShape"></path><path fill="#f79bba" d="M1000.08,1611.83l0.58-0.71c2.41-2.97,3.74-6.67,3.78-10.5l0.15-15.48c0.01-1.36,1.01-2.51,2.35-2.71l0,0
					c1.5-0.23,2.91,0.79,3.16,2.29l1.93,11.77c0.09,0.55,0.86,0.59,1.01,0.05c1.68-6.24,7.14-21.81,18.95-18.01
					c14.68,4.72,10.6,18.69,2.51,28.67c-8.09,9.98-16.39,18.34-16.39,18.34L1000.08,1611.83z" class="colorf7c19b svgShape"></path><rect width="19.16" height="23.14" x="801.81" y="2194.71" fill="#f79bba" class="colorf7c19b svgShape"></rect><rect width="18.68" height="23.02" x="902.12" y="2194.77" fill="#f79bba" class="colorf7c19b svgShape"></rect><path fill="#43374c" d="M901.86 2211.55c3.64 1.48 11.34 3.64 19.04-.36.69-.36 1.6-.29 2.18.19l24.2 20.31c2.18 1.83 4.1 3.84 5.72 6.01l0 0c.77 1.03.81 2.3.11 3.36l0 0c-.73 1.1-2.16 1.79-3.71 1.79h-49.16c-1.52 0-2.94-.59-3.83-1.58l0 0c-.69-.77-1-1.73-.86-2.67l3.84-25.97C899.54 2211.67 900.8 2211.12 901.86 2211.55zM818.02 1914.99h99.51l8.19 285.94c0 1.98-1.6 3.58-3.58 3.58h-22.73c-1.83 0-3.37-1.38-3.56-3.21l-18.42-198.35c-.31-2.95-2.8-5.2-5.77-5.2l0 0c-2.75 0-5.12 1.93-5.68 4.63l-39.19 199.25c-.34 1.67-1.81 2.87-3.52 2.87h-23.63c-2.11 0-3.77-1.81-3.58-3.92L818.02 1914.99z" class="color37424c svgShape"></path><path fill="#bf3160" d="M818.33,1916.78c14,5.01,57.71,17.68,103.99,0.81c2.8-1.02,4.68-3.67,4.68-6.65v-154.93
					c0-2.72-0.36-5.42-1.07-8.04l-0.3-1.12c-1.78-6.57-1.33-13.54,1.27-19.82l93.8-99.48c0.66-1.59-0.11-3.41-1.71-4.04l-17.35-16.8
					c-1.44-0.58-3.09,0.01-3.84,1.37l-91.1,75.59c-2,3.62-11.01,8.95-15.15,8.95l-36.67-2.98c-0.58,0-1.14,0.23-1.56,0.64
					l-34.83,34.4c-5.17,5.3-9.04,11.72-11.3,18.77l-25.22,78.57c-0.79,2.46-1.19,5.03-1.19,7.62v3.56c0,15.2,13.5,26.98,28.52,24.68
					c1.24-0.19,2.54-0.42,3.9-0.69l0.44,52.98C813.67,1913.15,815.54,1915.78,818.33,1916.78z" class="colorbf6f31 svgShape"></path><path fill="#f79bba" d="M854.27 1690.84c2.96 2.64 12.36 9.26 24.1-.26.52-.42.82-1.05.82-1.71v-8.12c0-1.5 1.23-2.66 2.73-2.67 4.6-.06 13.52-5.14 14.61-43.12.16-5.57-1.85-10.99-5.67-15.04-10.12-10.75-31.63-26.29-49.04 10.6 0 0-6.91 20.04 5.99 31.48 3.62 3.21 5.76 7.76 5.7 12.6l-.19 14.08C853.3 1689.49 853.65 1690.28 854.27 1690.84zM892.25 1789.19l1.25-.63c1.25-.63 2.18-1.74 2.59-3.07l2.91-9.62c.36-1.18 1.69-1.75 2.79-1.2l0 0c.78.39 1.22 1.25 1.07 2.11l-1.13 6.48c-.08.49.53.77.84.39 2.38-2.87 8.03-8.57 13.49-5.97 7.17 3.42 9.42 19.05 3.74 22.79-4.73 3.12-12.42 4.53-14.86 4.92-.52.08-1.04.22-1.54.4l-2.96 1.11L892.25 1789.19z" class="colorf7c19b svgShape"></path><polyline fill="#bf3160" points="800.2 1822.86 891.53 1788.35 900.84 1808.57 813.21 1857.21" class="colorbf6f31 svgShape"></polyline><path fill="#b22856" d="M813.21,1857.5c-0.1,0-0.2-0.05-0.26-0.15c-0.08-0.14-0.03-0.32,0.11-0.4l87.4-48.5l-9.08-19.73
						l-91.07,34.41c-0.15,0.05-0.32-0.02-0.38-0.17s0.02-0.32,0.17-0.38l91.32-34.51c0.14-0.05,0.3,0.01,0.37,0.15l9.31,20.23
						c0.06,0.14,0.01,0.3-0.12,0.38l-87.63,48.63C813.3,1857.49,813.25,1857.5,813.21,1857.5z" class="colorb26028 svgShape"></path><path fill="#43374c" d="M853.39 1682.26h-4.64c-5.17 0-10.11-2.16-13.61-5.97l0 0c-3.31-3.59-5.14-8.3-5.14-13.18v-6.63c0-1.71.22-3.41.67-5.06l6.06-22.54c.82-3.04-1.05-6.13-4.12-6.86-7.12-1.7-20.07-8.2-10.75-21.84 8.36-12.21 18.89-4.38 23.54 2.12 1.3 1.81 3.76 2.36 5.72 1.29l0 0c4.39-2.38 9.31-3.62 14.3-3.62h12.32c6.25 0 12.08 3.34 15.07 8.83 2.43 4.46 4.17 10.43 2.62 17.49-.09.4-.54.61-.91.43l-16.24-8.05c-1.01-.47-2.18.12-2.4 1.21-1.16 5.71-5.08 21.39-14.32 29.85-1.54 1.41-4 .98-5.02-.84-1.18-2.13-2.98-4.76-5.27-6.4-4.81-3.43-10.89 2.22-7.81 7.26 1.02 1.66 2.65 3.6 5.19 5.82 2.71 2.38 4.36 5.74 4.54 9.34L853.39 1682.26zM802.31 2213.65c2.96 1.8 9.73 4.61 18.29-.09.86-.47 1.94.05 2.1 1.02l4.43 26.61c.02.14.03.27.03.41v4.34c0 1.39-1.12 2.51-2.51 2.51h-29.16c-1.39 0-2.51-1.12-2.51-2.51v-3.9c0-.22.03-.43.08-.64l7.09-26.9C800.41 2213.57 801.48 2213.15 802.31 2213.65z" class="color37424c svgShape"></path><g fill="#000000" class="color000000 svgShape"><path fill="#f79bba" d="M1969.51,1628.97l13.77,6.75l3.85-5.35c0,0,18.75-13.9,2.69-25.45c-6.26-4.5-14.81,1.27-12.9,8.73
					c0.03,0.11,0.05,0.21,0.08,0.32c0.07,0.26-0.27,0.42-0.42,0.2l-3.59-5.3c-0.61-0.9-1.83-1.15-2.75-0.57l0,0
					c-0.84,0.53-1.17,1.61-0.77,2.52l2.73,6.17c0.61,1.38,0.66,2.94,0.13,4.36L1969.51,1628.97z" class="colorf7c19b svgShape"></path><polygon fill="#f79bba" points="1807.49 2178.61 1803.6 2213.45 1779.02 2210.88 1782.33 2177.37" class="colorf7c19b svgShape"></polygon><path fill="#43374c" d="M1772.01,2233.36c0.08,1.94,1.68,3.47,3.62,3.47l56.24-0.02c4.37,0,7.9-3.54,7.9-7.91l0,0
						c0-0.77-0.79-2.42-1.39-2.9l-30.84-23.87c-1.07-0.87-2.47-0.49-3.58,0.34c-6.88,5.13-16.51,5.22-26.25,4.71
						c-0.97-0.05-1.87,0.48-2.3,1.35C1770.91,2217.51,1771.69,2225.82,1772.01,2233.36z" class="color37424c svgShape"></path><polygon fill="#f79bba" points="1905.74 2175.06 1906.5 2213.95 1881.9 2214.29 1880.75 2176.94" class="colorf7c19b svgShape"></polygon><path fill="#43374c" d="M1874.34,2233.36c0.08,1.94,1.68,3.47,3.62,3.47l56.24-0.02c4.37,0,7.91-3.54,7.9-7.91l0,0
						c0-0.77-0.79-2.42-1.39-2.9l-30.84-23.87c-1.07-0.87-2.47-0.49-3.58,0.34c-6.94,5.18-16.67,5.22-26.49,4.7
						c-0.82-0.04-1.58,0.41-1.95,1.13C1873.23,2217.37,1874.01,2225.76,1874.34,2233.36z" class="color37424c svgShape"></path><path fill="#f79bba" d="M1981.66 1782.07l4.08 14.78 6.56-.67c0 0 22.85 4.8 20.82-14.88-.79-7.67-10.78-10.24-15.09-3.85-.06.09-.12.18-.18.27-.15.22-.49.08-.43-.18l1.58-6.2c.27-1.06-.35-2.13-1.4-2.43l0 0c-.96-.28-1.98.19-2.39 1.1l-2.8 6.14c-.63 1.37-1.76 2.45-3.17 2.99L1981.66 1782.07zM1877.19 1668.88c-.76.12-1.12 1.01-.66 1.63l8.36 11.24c.45.58.8 1.02.62 1.59-.52 1.49-1.2 2.76-2.03 3.85-3.57 4.75-9.68 6.06-15.28 6.06-5.74.02-10.89-1.34-12.13-1.8-.22-.08-.37-.25-.46-.46l-6.57-20.07c-.11-.31-.36-.55-.68-.64-15.19-4.81-19.68-23.36-19.68-23.36-7.47-41.23 23.65-43.84 39.27-42.67 5.22.39 9.9 3.4 12.45 7.97C1907.48 1660.69 1883.99 1667.85 1877.19 1668.88z" class="colorf7c19b svgShape"></path><path fill="#3e294e" d="M1847.5,1642.31l5.67,11.48c0.66,1.33,2.45,1.56,3.43,0.44l0,0c0.49-0.57,0.64-1.36,0.39-2.07l-3.23-8.91
						c-0.71-1.97-0.3-4.15,1.05-5.76c2.56-3.06,5.97-8.78,2.79-15.06c-0.68-1.35-0.07-3.01,1.34-3.57
						c4.9-1.96,14.46-6.39,17.02-12.01c0.47-1.03,1.03-2.02,1.68-2.96c1.82-2.61,4.62-8.17,0.13-13.12
						c-0.75-0.82-1.95-1.05-2.94-0.56l-8.37,4.13c-0.58,0.29-1.29,0.09-1.64-0.46l-4.34-6.78c-0.47-0.73-1.52-0.79-2.06-0.11
						l-7.23,8.95c-1.57,1.95-4.1,2.84-6.55,2.32c-5.08-1.07-14.62-1.32-24.04,7.91c-8.37,8.21-9.54,21.07-9.18,29.87
						c0.24,5.77,3.05,11.13,7.62,14.66l10.71,8.26c0.4,0.31,0.77,0.64,1.12,1c2.62,2.73,12.93,15.81,17.82,10.7
						c0.13-0.14,0.16-0.35,0.07-0.53l-1.57-8.08c-0.83-1.69-2.14-3.1-3.77-4.06c-4.38-2.56-12.71-8.56-7.14-14.45
						c1.86-1.96,4.48-3.08,7.18-3.06C1845.09,1640.5,1846.8,1640.89,1847.5,1642.31z" class="color29354e svgShape"></path><polygon fill="#53485b" points="1907.51 1859.94 1910.81 2186.37 1874.25 2186.37 1857.29 1940.36 1809.22 2186.37 1776.89 2186.37 1792.44 1874 1857.29 1843.39" class="color48495b svgShape"></polygon><path fill="#8f02ff" d="M1792.83,1838.88l8.53-40.45c0,0-17.4-83.98,49.04-119.56c0.32-0.17,0.79-0.32,1.11-0.46
						c0.06,0.06,0.12,0.12,0.18,0.17c3.18,3.23,6.09,5.44,9.29,6.49c4.92,1.78,10.02,0.9,15.71-3.03c1.72-1.08,3.5-2.54,5.33-4.23
						l49.16,6.03l35.78-57.9l22.67,6.79l-29.55,70.72c-3.85,9.18-13.08,14.92-23.02,14.28l-19.09-1.19l-6.73,40.56
						c13.23,15.04,23.19,27.33,23.19,27.33l49.97-5.45l4.14,20.92l-50.67,10.69c-12.15,1.37-24.24-3-32.72-11.8l-0.7-0.73
						l-1.25,7.61l4.31,54.26l0,0c-23.26,9.34-47.46,16.17-72.17,20.38l-44.05,7.5c-2.92,0.5-5.55-1.92-5.26-4.87
						C1787.49,1868.16,1789.76,1853.44,1792.83,1838.88z" class="color2b91cc svgShape"></path></g><g fill="#000000" class="color000000 svgShape"><path fill="#f79bba" d="M2704.46 1577.12l-15.76 1.71-1.86-6.56c0 0-13.33-20.13 6.36-25.69 7.67-2.17 13.96 6.45 9.46 13.04-.06.09-.13.18-.19.28-.16.23.12.5.34.34l5.36-3.88c.91-.66 2.18-.48 2.87.41l0 0c.63.82.57 1.98-.14 2.72l-4.83 5.03c-1.08 1.13-1.68 2.63-1.67 4.19L2704.46 1577.12zM2681.98 1795.19l2.89 15.59-6.4 2.35c0 0-19.07 14.81-26.1-4.41-2.74-7.49 5.39-14.4 12.29-10.41.1.06.19.11.29.17.24.14.49-.15.31-.36l-4.27-5.05c-.73-.86-.64-2.14.2-2.9l0 0c.77-.69 1.93-.72 2.72-.06l5.38 4.44c1.2.99 2.75 1.48 4.3 1.35L2681.98 1795.19z" class="colorf7c19b svgShape"></path><path fill="#43374c" d="M2746.45,1647.1c0,0-25,6.3-14.15,34.29l46.55,32.54l34.34,25.93l19.78,3.5c0,0,41.26-0.43,23.25-33.76
							c0,0,6.66-24.12-18.03-33.29c0,0-3.04-12.9-20.86-14.6" class="color37424c svgShape"></path><path fill="#f79bba" d="M2770.72,1657.14c-1.04,3.28-2.06,12.32-4.37,15.43c-1.21,1.62-0.97,3.89,0.53,5.24
							c4.07,3.65,7.1,7.98,19.14,7.59c2.07-0.07,3.75-1.69,3.84-3.76c0.3-7.19,6.14-26.8,9.94-31.82c0,0,32.02-50.83-18.58-49.3
							c-0.89,0.03-2.32,0.29-3.17,0.57l-4.65,1.51c-3.95,1.28-7.14,4.24-8.69,8.09c-4.67,11.56-12.34,35.84,3,40.75
							C2770.13,1652.19,2771.48,1654.73,2770.72,1657.14z" class="colorf7c19b svgShape"></path><path fill="#43374c" d="M2770.95,1656.4l0.52-1.98c0.28-1.09-0.46-2.08-1.56-2.34c-3.41-0.82-10.83-3.49-11.03-15.91
							c-0.25-14.92,9.76-28.1,23.79-33.17l0.81-0.29c0.54-0.2,1.2,0.06,1.36,0.62c0.78,2.72-4.71,9.64-1.8,16.06
							c3.44,7.59,4.79,15.95,2.26,23.89l-0.39,1.22c-1.11,3.49-1.41,7.11-0.78,10.67c1.27,7.21-3.18,28.62,10.08,30.13
							c4.18,0.48,23.12-13.16,22.71-17.35l0,0c-0.26-2.69,0.03-5.41,0.85-7.98l9.81-30.82c0.69-2.16,1.13-4.38,1.26-6.64
							c0.66-11.64-1.33-45.1-46.42-42.05c0,0-15.53,1.91-20.69,18.12l-7.81,24.53c-0.3,0.95-0.52,1.92-0.64,2.91
							c-0.42,3.49-1.95,13.04-6.51,20.05c-0.2,0.31-0.32,0.67-0.33,1.04l0,0" class="color37424c svgShape"></path><path fill="#f79bba" d="M2711.68 2022.22l-14.39 193.96h26.9c-4.92-36.77 16.97-111.23 36.29-182.07L2711.68 2022.22zM2770.5 2033.48l39.32 182.19 22-12-2.05-9.55c-5.71-26.53-8.91-53.53-9.55-80.66l-2.16-91.24L2770.5 2033.48z" class="colorf7c19b svgShape"></path><path fill="#ff6699" d="M2819.72,1761.72l-11.26,9.59c-2.09,40.46,13.77,62.57,13.77,62.57l-34.2,24.61l-65.7-27.11
									c11.23-25.19,16.96-53.49,19.08-83.84c-17.83-23.78-3.02-43.8-3.02-43.8l-41.06-34.63c-5.03-4.25-8.06-10.41-8.33-16.99
									l-3.17-75.61l21.27-5.42l4.4,65.62c0.37,5.58,3.76,10.51,8.83,12.86l46.68,21.74c3.97,23.98,24.77,6.98,24.77,6.98l0,0
									c20.2,3.23,35.7,20.57,35.25,41.02C2826.78,1730.16,2824.74,1744.03,2819.72,1761.72z" class="colorfa5669 svgShape"></path><path fill="#53485b" d="M2722.32,1831.38c-22.88,65.62-31.22,140.57-28.99,222.33l15.01-4.95c17.42-5.75,36.14-6.25,53.84-1.43
									l0.63,0.17c18.82,5.12,38.78,4.09,56.97-2.93l0,0c12.97-5,26.58-8.13,40.43-9.28l34.18-2.85
									c-18.98-29.65-35-61.09-44.14-96.74c-3.24-12.66-4.88-25.61-6-38.63c-1.3-15.13-5.9-42.73-22.02-63.18L2722.32,1831.38z" class="color48495b svgShape"></path><polygon fill="#ff6699" points="2745.89 1769.65 2676.64 1793.43 2680.82 1815.95 2750.89 1792.8" class="colorfa5669 svgShape"></polygon><path fill="#43374c" d="M2807.33 2202.51h24.24l6.01 27.92c.1.43.15.88.15 1.32v2.38c0 3.2-2.6 5.8-5.8 5.8h-62.16c-1.64 0-3.15-.89-3.95-2.33l0 0c-1.09-1.98-.54-4.47 1.29-5.8 16.33-7.12 30.16-16.32 39.65-29.09C2806.93 2202.57 2807.13 2202.51 2807.33 2202.51zM2698.31 2202.51h25.26l6.01 27.92c.1.43.15.88.15 1.32v2.38c0 3.2-2.6 5.8-5.8 5.8h-62.16c-1.64 0-3.15-.89-3.95-2.33l0 0c-1.09-1.98-.54-4.47 1.29-5.8C2675.52 2224.63 2688.81 2215.38 2698.31 2202.51z" class="color37424c svgShape"></path></g><g fill="#000000" class="color000000 svgShape"><path fill="#470e75" d="M785.07 760.14v130.83H448.19v207.22h258.15v128.51H448.19v341.51H286.12V760.14H785.07zM1474.89 1396.79l-320.19 32.44-37.47 158.56-169.31 17.15 207.53-834.38 187.74-19.02 370.67 775.8-170.47 17.27L1474.89 1396.79zM1418.05 1272.23L1267.64 947.7l-82.24 348.09L1418.05 1272.23zM2091.41 796.88v808.06h-162.08V796.88H2091.41zM2692.46 1429.05l263.25-39.97 19.29 127.05-423.49 64.3-121.31-798.9 160.24-24.33L2692.46 1429.05z" class="color0e4275 svgShape"></path></g></svg>