<svg width="89" height="20" viewBox="0 0 89 20" fill="none" xmlns="http://www.w3.org/2000/svg">
<path d="M7.8525 7.94L6.1125 15H3.5525L0.8725 0.999999H3.2925L4.9325 9.96L7.0725 0.999999H8.6325L10.7725 9.96L12.2725 0.999999H14.7925L12.1125 15H9.6325L7.8525 7.94ZM17.8966 12.02C17.8966 12.3933 17.9966 12.6867 18.1966 12.9C18.4099 13.1 18.7166 13.2 19.1166 13.2C19.7299 13.2 20.5499 12.9333 21.5766 12.4L22.3766 14.3C21.8966 14.6067 21.3499 14.84 20.7366 15C20.1232 15.16 19.5099 15.24 18.8966 15.24C17.9099 15.24 17.1232 15 16.5366 14.52C15.9632 14.0267 15.6766 13.2933 15.6766 12.32V8.22C15.6766 7.14 16.0099 6.3 16.6766 5.7C17.3566 5.1 18.2499 4.8 19.3566 4.8C20.4632 4.8 21.3232 5.1 21.9366 5.7C22.5632 6.28667 22.8766 7.10667 22.8766 8.16V11.2L17.8966 11.46V12.02ZM20.6566 8.2C20.6566 7.8 20.5299 7.49333 20.2766 7.28C20.0232 7.06667 19.7099 6.96 19.3366 6.96C18.8299 6.96 18.4632 7.09333 18.2366 7.36C18.0099 7.62667 17.8966 7.92 17.8966 8.24V9.44L20.6566 9.26V8.2ZM25.2084 0.999999H27.4084V15H25.2084V0.999999ZM30.56 0.999999H32.76V15H30.56V0.999999ZM35.2516 6.74H41.6516V8.84H35.2516V6.74ZM44.1147 0.979999H47.8747C49.3814 0.979999 50.528 1.39333 51.3147 2.22C52.1147 3.04667 52.5147 4.14667 52.5147 5.52V11C52.5147 13.6667 51.1014 15 48.2747 15H44.1147V0.979999ZM50.3147 5.32C50.3147 4.58667 50.128 4.05333 49.7547 3.72C49.3947 3.37333 48.8347 3.2 48.0747 3.2H46.3147V12.98H47.9547C48.6747 12.98 49.248 12.8733 49.6747 12.66C50.1014 12.4333 50.3147 11.9467 50.3147 11.2V5.32ZM58.7781 17.46C59.1248 17.46 59.4315 17.3533 59.6981 17.14C59.9781 16.9267 60.1181 16.5867 60.1181 16.12V14.96C60.0781 14.9733 59.9248 15.02 59.6581 15.1C59.3915 15.1933 58.9981 15.24 58.4781 15.24C57.3048 15.24 56.3981 14.9267 55.7581 14.3C55.1315 13.66 54.8181 12.72 54.8181 11.48V4.98H57.0181V10.88C57.0181 11.72 57.1248 12.2933 57.3381 12.6C57.5648 12.8933 57.9448 13.04 58.4781 13.04C58.8648 13.04 59.1715 12.9867 59.3981 12.88C59.6381 12.76 59.8181 12.5467 59.9381 12.24C60.0581 11.92 60.1181 11.4667 60.1181 10.88V7.74C60.1181 7.28667 60.2248 6.84 60.4381 6.4C60.6648 5.96 60.9715 5.59333 61.3581 5.3C61.7581 5.00667 62.2048 4.84 62.6981 4.8L63.5181 6.6C63.1315 6.69333 62.8315 6.88 62.6181 7.16C62.4181 7.42667 62.3181 7.72667 62.3181 8.06V16.22C62.3181 17.0867 62.1115 17.7667 61.6981 18.26C61.2981 18.7667 60.6115 19.08 59.6381 19.2L58.7781 17.46ZM66.9553 3.16C66.6353 3.16 66.3553 3.04 66.1153 2.8C65.8753 2.56 65.7553 2.28 65.7553 1.96C65.7553 1.65333 65.8753 1.38667 66.1153 1.16C66.3553 0.919999 66.6353 0.799999 66.9553 0.799999C67.262 0.799999 67.5286 0.919999 67.7553 1.16C67.9953 1.38667 68.1153 1.65333 68.1153 1.96C68.1153 2.28 67.9953 2.56 67.7553 2.8C67.5286 3.04 67.262 3.16 66.9553 3.16ZM65.7953 4.98H67.9953V15H65.7953V4.98ZM76.1827 8.7C76.1827 8.16667 76.0293 7.74 75.7227 7.42C75.4293 7.08667 75.0293 6.92 74.5227 6.92C74.1093 6.92 73.6627 7.04 73.1827 7.28V15H71.0027V4.98H72.9427L73.2027 5.1C73.7627 4.91333 74.3427 4.82 74.9427 4.82C75.6093 4.82 76.1893 4.94 76.6827 5.18C77.216 5.42 77.6293 5.78 77.9227 6.26C78.2293 6.74 78.3827 7.34667 78.3827 8.08V15H76.1827V8.7ZM84.3427 17.48C84.796 17.48 85.1493 17.3467 85.4027 17.08C85.6693 16.8267 85.8027 16.44 85.8027 15.92V14.84C85.696 14.92 85.5027 15.0067 85.2227 15.1C84.956 15.1933 84.6093 15.24 84.1827 15.24C83.0093 15.24 82.096 14.92 81.4427 14.28C80.7893 13.64 80.4627 12.7067 80.4627 11.48V8.5C80.4627 7.32667 80.8027 6.42 81.4827 5.78C82.176 5.12667 83.1027 4.8 84.2627 4.8C84.636 4.8 84.9693 4.84667 85.2627 4.94C85.556 5.02 85.7427 5.10667 85.8227 5.2L86.2427 4.98H88.0027V16.28C88.0027 18.2267 86.956 19.2 84.8627 19.2L84.3427 17.48ZM85.8027 8.7C85.8027 8.16667 85.6827 7.74667 85.4427 7.44C85.2027 7.13333 84.7827 6.98 84.1827 6.98C83.636 6.98 83.2427 7.14 83.0027 7.46C82.776 7.76667 82.6627 8.14667 82.6627 8.6V11.18C82.6627 12.4733 83.1693 13.12 84.1827 13.12C84.836 13.12 85.2693 12.9067 85.4827 12.48C85.696 12.0533 85.8027 11.3533 85.8027 10.38V8.7Z" fill="white"/>
</svg>
